<?xml version="1.0" encoding="utf-8"?>
<!-- Generator: Adobe Illustrator 23.0.1, SVG Export Plug-In . SVG Version: 6.00 Build 0)  -->
<svg version="1.1" id="图层_1" xmlns="http://www.w3.org/2000/svg" xmlns:xlink="http://www.w3.org/1999/xlink" x="0px" y="0px"
	 viewBox="0 0 400 100" style="enable-background:new 0 0 400 100;" xml:space="preserve">
<style type="text/css">
	.st0{fill:#FFFFFF;}
</style>
<g>
	<path class="st0" d="M49.34,55.56V35.01h-7.47v20.54c-0.02,4.85-0.1,7.9-0.26,9.05c-0.13,1.01-0.44,1.77-0.9,2.24
		c-0.38,0.36-0.78,0.62-1.24,0.77c-0.5,0.17-1.3,0.3-2.38,0.39c-2.49,0.2-5.18,0.3-8.02,0.3c-3.91,0-6.6-0.17-7.98-0.5
		c-1.22-0.29-2-0.81-2.39-1.59c-0.2-0.39-0.53-1.57-0.58-5.05c0-0.12-0.01-0.42-0.06-1.53l-0.03-0.77h-7.16l0.01,0.82
		c0.04,3.44,0.2,5.91,0.48,7.53c0.63,3.46,2.6,5.7,5.86,6.67C19.63,74.63,23.27,75,28.04,75c6.55,0,10.97-0.3,13.51-0.9
		c2.28-0.51,4.04-1.47,5.22-2.84c1.18-1.36,1.93-3.25,2.25-5.63C49.22,64.16,49.32,60.87,49.34,55.56z"/>
	<path class="st0" d="M136.41,52.6c-1.62-0.56-3.8-0.84-6.68-0.86c-6.49-0.02-10.62-0.04-12.28-0.06c-4.72-0.04-7.91-0.31-9.48-0.82
		c-0.86-0.27-1.43-0.64-1.7-1.12c-0.21-0.37-0.46-1.21-0.46-3.11c0-1.6,0.3-2.72,0.88-3.31c0.47-0.45,1.6-1.07,4.33-1.48
		c2.31-0.35,5.92-0.53,10.71-0.53c3.81,0,6.67,0.2,8.5,0.59c1.64,0.35,2.72,0.89,3.13,1.58c0.17,0.27,0.45,1.03,0.45,3.18v1.66h7.48
		l-0.01-0.82c-0.04-2.72-0.27-4.67-0.71-5.95c-0.45-1.33-1.31-2.51-2.54-3.5c-1.44-1.19-3.44-2.02-5.94-2.49
		c-2.41-0.45-5.82-0.68-10.14-0.68c-4.61,0-8.65,0.21-12.02,0.61c-2.11,0.25-3.8,0.58-5.02,1.01c-1.25,0.43-2.41,1.09-3.43,1.93
		c-2.16,1.74-3.26,4.49-3.26,8.19c0,3.28,0.68,5.8,2.02,7.48c1.15,1.47,2.8,2.54,4.9,3.19c2.02,0.62,4.69,0.93,7.94,0.93
		c9.24,0,14.76,0.03,16.4,0.08c1.57,0.05,2.79,0.22,3.62,0.5c0.61,0.22,1.03,0.6,1.3,1.17c0.21,0.45,0.46,1.37,0.46,3.2
		c0,3.55-1.53,4.29-2.69,4.54c-2.34,0.54-6.31,0.81-11.8,0.81c-9.38,0-12.34-0.43-13.18-0.79c-0.6-0.26-0.98-0.61-1.15-1.07
		c-0.15-0.4-0.33-1.4-0.38-3.89l-0.01-0.1c0-0.03-0.02-0.2-0.02-0.99v-0.81h-7.32l-0.01,0.8c-0.02,1.2-0.03,1.86-0.03,1.97
		c0,2.58,0.29,4.51,0.9,5.89c0.62,1.42,1.76,2.61,3.38,3.54c1.3,0.73,3.03,1.24,5.15,1.5c2.05,0.26,5.22,0.39,9.43,0.39
		c7.95,0,13.59-0.33,16.75-0.98c3.34-0.69,5.69-2.11,6.99-4.24c1.03-1.72,1.55-4.07,1.55-6.98c0-3.07-0.65-5.5-1.93-7.22
		C139.45,54.17,138.07,53.18,136.41,52.6z"/>
	<path class="st0" d="M196.06,41.36L196.06,41.36c-0.44-1.18-1.11-2.21-1.99-3.05c-1.39-1.39-3.54-2.32-6.41-2.77
		c-2.73-0.43-7.41-0.64-13.9-0.64c-7.88,0.02-13.55,0.28-16.85,0.78c-4.04,0.62-6.67,2.65-7.8,6.04c-0.86,2.65-1.28,6.93-1.28,13.09
		c0,5.17,0.19,8.77,0.58,11c0.4,2.31,1.25,4.16,2.52,5.49c0.98,1.02,2.1,1.78,3.33,2.28c1.2,0.48,2.82,0.82,4.83,1.01
		c1.13,0.09,3.38,0.18,6.89,0.28c3.46,0.09,6.64,0.14,9.46,0.14c5.82,0,10.1-0.23,12.72-0.67c2.76-0.47,4.82-1.41,6.1-2.77
		c1.21-1.25,2.06-3.19,2.52-5.75c0.44-2.45,0.66-6.05,0.66-10.72c0-3.64-0.14-6.71-0.42-9.12C196.8,44.04,196.48,42.49,196.06,41.36
		z M170.85,41.6c5.16,0.02,8.68,0.06,10.46,0.12c1.77,0.06,3.37,0.2,4.77,0.42c1.95,0.3,2.99,1.18,3.28,2.77
		c0.36,1.95,0.54,5.41,0.54,10.29c0,3.98-0.21,7.15-0.62,9.43c-0.32,1.73-1.24,2.66-2.88,2.94c-2.68,0.49-7.06,0.73-13.02,0.73
		c-4.21,0-7.97-0.11-11.15-0.33c-1.85-0.12-3.19-0.29-3.98-0.5c-0.68-0.18-1.18-0.45-1.51-0.82c-0.25-0.27-0.72-1.05-0.99-3.27
		c-0.22-1.83-0.34-4.85-0.34-8.96c0-3.96,0.21-7,0.62-9.04c0.2-1.08,0.54-1.84,0.99-2.24c0.47-0.42,1.3-0.73,2.47-0.93
		C161.88,41.81,165.7,41.6,170.85,41.6z"/>
	<polygon class="st0" points="322.72,35.01 304.48,68.08 304.24,68.08 285.58,35.01 277.29,35.01 299.76,74.86 309.05,74.86 
		331.06,35.01 	"/>
	<path class="st0" d="M379.53,35.01v19.6c-0.04,4.79-0.1,7.92-0.19,9.32c-0.1,1.64-0.48,2.39-0.78,2.73
		c-0.43,0.49-1.26,0.83-2.46,1.02c-2.47,0.4-7.08,0.6-13.7,0.6c-4.84,0-8.59-0.16-11.14-0.46c-1.27-0.16-2.2-0.48-2.68-0.94
		c-0.47-0.45-0.77-1.28-0.9-2.48c-0.11-1.07-0.16-4.36-0.16-9.77V35.01h-7.47v19.62c0.06,5.41,0.15,8.81,0.29,10.4
		c0.15,1.65,0.53,3.1,1.15,4.31c1.31,2.57,3.42,4.19,6.3,4.81c1.54,0.32,2.98,0.52,4.29,0.58c1.29,0.07,5.05,0.14,11.52,0.24
		c7.24-0.17,11.87-0.36,13.78-0.57c1.99-0.22,3.74-0.78,5.21-1.65c2.39-1.48,3.78-4.05,4.14-7.66c0.15-1.92,0.24-5.44,0.28-10.47
		V35.01H379.53z"/>
	<path class="st0" d="M244.25,74.97v-19.6c-0.04-4.79-0.1-7.92-0.19-9.32c-0.1-1.64-0.48-2.39-0.78-2.73
		c-0.43-0.49-1.26-0.83-2.46-1.02c-2.47-0.4-7.08-0.6-13.7-0.6c-4.84,0-8.59,0.16-11.14,0.46c-1.27,0.16-2.2,0.48-2.68,0.94
		c-0.47,0.45-0.77,1.28-0.9,2.48c-0.11,1.07-0.16,4.36-0.16,9.77v19.61h-7.47V55.36c0.06-5.41,0.15-8.81,0.29-10.4
		c0.15-1.65,0.53-3.1,1.15-4.31c1.31-2.57,3.42-4.19,6.3-4.81c1.54-0.32,2.98-0.52,4.29-0.58c1.29-0.07,5.05-0.14,11.52-0.24
		c7.24,0.17,11.87,0.36,13.78,0.57c1.99,0.22,3.74,0.78,5.21,1.65c2.39,1.48,3.78,4.05,4.13,7.66c0.15,1.92,0.24,5.44,0.28,10.47
		v19.61H244.25z"/>
	<polygon class="st0" points="73.33,35.01 69.2,41.87 79.93,60.45 58.01,60.45 54.11,66.91 83.07,66.91 87.54,74.86 95.86,74.86 	
		"/>
	<polygon class="st0" points="289.26,74.86 280.78,74.86 258.31,35.01 266.6,35.01 	"/>
</g>
</svg>
